<?xml version="1.0" encoding="UTF-8"?>
<svg id="Layer_1" data-name="Layer 1" xmlns="http://www.w3.org/2000/svg" xmlns:xlink="http://www.w3.org/1999/xlink" viewBox="0 0 28.72 27.32">
  <defs>
    <style>
      .cls-1 {
        fill: #fff;
      }

      .cls-2 {
        fill: #035496;
      }

      .cls-3 {
        clip-path: url(#clippath);
      }

      .cls-4 {
        fill: #edd016;
      }

      .cls-5 {
        fill: none;
      }

      .cls-6 {
        fill: #2fa649;
      }
    </style>
    <clipPath id="clippath">
      <path class="cls-5" d="M20.05,16.32l1.8-2.94c-.33-.3-.43-.8-.22-1.22,.21-.42,.66-.63,1.1-.56-.25-3.86-2.49-7.49-6.2-9.35C10.96-.53,4.2,1.72,1.42,7.28,.45,9.22,.09,11.29,.27,13.3l.04-.23,19.74,3.25Z"/>
    </clipPath>
  </defs>
  <path class="cls-1" d="M.83,15.39l-.18,.48,1.13,.42c-.04-.19-.08-.39-.11-.59,0,0-.84-.31-.84-.31Z"/>
  <path class="cls-1" d="M14.27,27.32h0c-.09-.01-.17-.02-.26-.02l.26,.02Z"/>
  <path class="cls-1" d="M18.64,26.06l.14-.23c-.09,.05-.18,.1-.27,.15,0,0,.13,.08,.13,.08Z"/>
  <path class="cls-1" d="M1.51,14.99h.07c0-.08-.02-.16-.03-.25,0,0-.04,.25-.04,.25Z"/>
  <g>
    <g>
      <path class="cls-6" d="M24.69,19.3c.15,.38,.16,.38,.47,.25,.93-.39,1.86-.78,2.79-1.18,.2-.08,.38-.12,.48,.12,.09,.22-.05,.33-.24,.41-.91,.38-1.81,.76-2.71,1.14-.09,.04-.18,.09-.27,.13q.15,.38,.49,.24c.73-.3,1.46-.6,2.2-.9,.07-.03,.15-.08,.21-.07,.11,.03,.25,.08,.3,.16,.04,.07-.01,.22-.07,.3-.05,.07-.15,.11-.24,.14-.84,.35-1.69,.71-2.53,1.06-.38,.16-.48,.12-.69-.24-.4-.69-.82-1.38-1.2-2.08-.13-.23-.27-.31-.52-.24-.18,.05-.37,.11-.56,.1-.11,0-.22-.12-.33-.19,.08-.1,.14-.27,.23-.29,.38-.1,.76-.17,1.15-.22,.09-.01,.23,.07,.3,.15,.12,.15,.21,.32,.29,.49,.1,.21,.22,.26,.45,.16,1.01-.44,2.03-.86,3.05-1.3,.38-.16,.57-.17,.62,.03,.07,.31-.22,.33-.41,.41-1.03,.44-2.06,.87-3.09,1.31-.05,.02-.1,.05-.16,.09v.02Z"/>
      <path class="cls-6" d="M26.64,21.79c0,.27-.21,.47-.47,.46-.28,0-.47-.22-.46-.5,.01-.27,.21-.45,.49-.44,.27,0,.45,.2,.45,.48h-.01Z"/>
      <path class="cls-6" d="M28.33,21.2c-.17-.01-.3-.13-.3-.34s.14-.34,.35-.34,.34,.14,.34,.35-.12,.33-.39,.33Z"/>
    </g>
    <g>
      <g>
        <path class="cls-6" d="M17.38,21.59c.07,.07,.13,.14,.17,.23,1.34-.86,2.52-2,3.42-3.41l-1.85,.34-1.74,2.85h0Z"/>
        <path class="cls-6" d="M3.82,15.42l6.67,3.82c.3-.33,.8-.44,1.22-.22,.23,.11,.39,.3,.49,.52l6.64-1.21,.97-1.59L.31,13.53c.02,.21,.05,.41,.09,.62l3.41,1.25h.02v.02Z"/>
        <path class="cls-6" d="M10.94,20.92c-.05-.02-.11-.04-.16-.06-.46-.23-.67-.75-.52-1.23l-6.65-3.81L.49,14.68c.69,3.23,2.79,6.12,5.97,7.71,1.45,.72,2.98,1.11,4.5,1.18l-.22-.02s.2-2.63,.2-2.63Z"/>
        <path class="cls-6" d="M22.26,13.61l-1.71,2.79,1.31,.22-.03,.16c.44-1.02,.72-2.07,.84-3.13-.14,.02-.28,0-.42-.04h.01Z"/>
        <path class="cls-6" d="M19.44,18.22l1.85-.34c.1-.17,.19-.34,.28-.52,.05-.1,.1-.21,.15-.31l-1.42-.23-.85,1.4h-.01Z"/>
        <path class="cls-6" d="M15.74,21.87c.23-.47,.77-.68,1.25-.52l1.53-2.5-6.24,1.13c0,.14-.04,.28-.11,.42-.16,.31-.45,.51-.77,.56l-.2,2.62c1.56,.04,3.1-.24,4.53-.82-.13-.27-.13-.6,.02-.89h-.01Z"/>
        <path class="cls-6" d="M19.63,19.24c.19-.23,.38-.46,.55-.69l3.34-.61c.17-.02,.32,.07,.37,.2,.07,.19-.09,.41-.2,.42-.04,0-.05-.02-.14-.03,0,0-.07-.01-.17,0-.91,.04-2.92,1.75-2.92,1.75,0,0-1.64,1.39-2.9,1.56-.03,0-.11,.02-.14-.03-.06-.09,.15-.33,.39-.57,.6-.59,1.22-1.25,1.83-1.98v-.02Z"/>
      </g>
      <g class="cls-3">
        <g>
          <path class="cls-2" d="M.82,6.79c.1,1.06,.68,1.77,1.5,2.35,1.55,1.09,3.34,1.55,5.2,1.69,4.09,.31,8-.42,11.71-2.1,.69-.31,1.29-.85,1.87-1.34,.26-.22,.38-.59,.58-.94,.41,.88,.84,1.75,.71,2.75-.14,1.02-.86,1.64-1.73,2.13-1.66,.93-3.5,1.26-5.36,1.4-3.41,.25-6.8,.13-10.12-.75-1.54-.41-3-.96-4.21-2.03-.61-.54-.9-1.14-.57-1.94,.16-.4,.29-.81,.43-1.22h0Z"/>
          <path class="cls-4" d="M22.72,10.95c-.04,1.12,.02,2.36-.79,3.42-.72,.95-1.73,1.55-2.86,1.87-1.45,.4-2.93,.77-4.43,.93-2.59,.28-5.2,.22-7.77-.33-1.95-.42-3.8-1.08-5.41-2.28C.25,13.66-.06,13,0,11.51c.39,.48,.75,1.03,1.21,1.47,1.4,1.35,3.18,2.04,5.08,2.3,5.1,.69,9.88-.35,14.36-2.74,.77-.41,1.39-1.06,2.06-1.59Z"/>
          <path class="cls-4" d="M3.61,2.91c-.49,1.41,.33,2.47,1.6,2.97,1.29,.52,2.66,.57,4.03,.56,2.56-.03,5.05-.38,7.4-1.41,.6-.26,1.17-.63,1.69-1.02,.32-.24,.52-.64,.84-1.04,.42,.49,.94,1.01,1.34,1.6,.46,.68,.18,1.59-.54,2.2-1.07,.91-2.37,1.31-3.73,1.52-3.74,.58-7.42,.31-11.01-.85-.88-.29-1.73-.76-2.49-1.29-.9-.64-.91-1.26-.2-2.09,.34-.4,.71-.76,1.07-1.14h0Z"/>
          <path class="cls-2" d="M11.53,4.38c-2.15-.03-3.85-.1-5.46-.71-.32-.12-.64-.28-.92-.47-.64-.44-.67-.99,0-1.38,.79-.46,1.62-.91,2.49-1.2,3.15-1.03,6.23-.77,9.17,.75,.16,.08,.32,.17,.47,.27,.7,.43,.71,.85,.03,1.34-.82,.6-1.79,.86-2.77,1.03-1.14,.2-2.31,.28-3.03,.37h.02Z"/>
          <path class="cls-2" d="M1.37,16.3c3,2.47,6.47,2.9,10.09,2.75,2.38-.1,4.7-.53,6.91-1.42,1.27-.51,2.44-1.18,3.43-2.27-.79,2.04-2.25,3.26-4.2,3.99-2.82,1.06-5.72,1.13-8.67,.74-1.88-.25-3.69-.73-5.32-1.7-.86-.51-1.63-1.21-2.23-2.09h0Z"/>
          <path class="cls-2" d="M18.03,19.89c-3.23,2.54-8.79,3.11-13.07,.25,4.46,1.49,8.78,1.49,13.07-.25Z"/>
        </g>
      </g>
      <path class="cls-1" d="M22.63,18.1l-.08-.45-1.26,.23c-.1,.18-.21,.35-.32,.52l1.66-.3Z"/>
      <path class="cls-1" d="M10.26,19.64s.04-.11,.06-.16c.04-.09,.1-.17,.16-.24l-6.67-3.82h-.02L.39,14.15c.03,.18,.06,.35,.1,.53l3.11,1.15,6.65,3.81h.01Z"/>
      <path class="cls-1" d="M12.19,19.53c.06,.14,.09,.3,.08,.45l6.24-1.13,.32-.52-6.64,1.21h0Z"/>
      <path class="cls-1" d="M19.12,18.74l1.85-.34c.11-.17,.21-.35,.32-.52l-1.85,.34-.32,.52Z"/>
      <path class="cls-1" d="M11.4,20.96c.32-.05,.62-.25,.77-.56,.07-.13,.1-.28,.11-.42l-.82,.15-.06,.83Z"/>
      <path class="cls-1" d="M12.19,19.53c-.09-.22-.26-.4-.49-.52-.42-.21-.92-.11-1.22,.22l.8,.46,.91-.17h0Z"/>
      <path class="cls-1" d="M10.26,19.64c-.15,.47,.07,1,.52,1.23,.05,.03,.1,.05,.16,.06l.07-.86s-.75-.43-.75-.43Z"/>
      <path class="cls-1" d="M12.19,19.53l-.91,.17-.8-.46c-.06,.07-.12,.15-.16,.24-.03,.05-.05,.11-.06,.16l.75,.43v-.14l.47,.04v.18l.8-.15c0-.16-.02-.31-.08-.45v-.02Z"/>
      <path class="cls-1" d="M23.49,13.08c-.16,.32-.47,.52-.8,.56-.14,.02-.28,0-.42-.04-.05-.02-.11-.04-.16-.06-.09-.05-.17-.1-.24-.17-.33-.3-.43-.8-.22-1.22,.21-.42,.66-.63,1.1-.56,.1,.02,.2,.05,.29,.09,.51,.26,.72,.88,.46,1.39h-.01Z"/>
      <path class="cls-1" d="M4.86,16.29c-.16,.32-.47,.52-.8,.56-.14,.02-.28,0-.42-.04-.05-.02-.11-.04-.16-.06-.09-.05-.17-.1-.24-.17-.33-.3-.43-.8-.22-1.22s.66-.63,1.1-.56c.1,.02,.2,.05,.29,.09,.51,.26,.72,.88,.46,1.39h0Z"/>
      <path class="cls-1" d="M17.06,22.11c.17-.09,.33-.19,.49-.3-.05-.08-.11-.16-.17-.23l-.32,.52h0Z"/>
      <path class="cls-1" d="M16.46,22.21l.52-.86c-.48-.16-1.02,.05-1.25,.52-.15,.29-.14,.62-.02,.89,.32-.13,.63-.27,.94-.43,0,0-.19-.12-.19-.12Z"/>
      <path class="cls-1" d="M10.94,20.92l-.2,2.63,.22,.02h.23l.2-2.62c-.15,.02-.31,.01-.46-.04h.01Z"/>
      <path class="cls-1" d="M11.2,20.18l-.07-.04-.13-.07-.07,.86c.15,.05,.31,.06,.46,.04l.06-.83-.26,.05h0Z"/>
      <polygon class="cls-1" points="11.2 20.18 11.46 20.13 11.47 19.96 11.02 19.92 11 20.07 11.13 20.14 11.2 20.18"/>
      <path class="cls-1" d="M21.86,13.38l-1.8,2.94,.49,.08,1.71-2.79s-.11-.04-.16-.06c-.09-.05-.17-.1-.24-.17Z"/>
      <polygon class="cls-1" points="18.84 18.33 19.44 18.22 20.3 16.82 19.81 16.74 18.84 18.33"/>
      <path class="cls-1" d="M16.99,21.35s.09,.03,.13,.05c.1,.05,.18,.11,.26,.18l1.74-2.85-.6,.11-1.53,2.5h0Z"/>
      <polygon class="cls-1" points="18.52 18.85 19.12 18.74 19.44 18.22 18.84 18.33 18.52 18.85"/>
      <path class="cls-1" d="M17.12,21.41s-.09-.04-.13-.05l-.52,.86,.19,.12c.14-.07,.27-.14,.4-.22l.32-.52c-.07-.07-.16-.13-.26-.18h0Z"/>
      <path class="cls-1" d="M21.79,17.07l.05-.29c-.04,.09-.08,.18-.12,.28h.07Z"/>
      <path class="cls-1" d="M20.07,16.32L.32,13.07l-.04,.23c0,.08,0,.16,.02,.24l19.5,3.21,.26-.42h.01Z"/>
      <path class="cls-1" d="M20.55,16.4l-.26,.42,1.42,.23c.04-.09,.08-.18,.12-.28l.03-.16-1.31-.22h0Z"/>
      <polygon class="cls-1" points="19.81 16.74 20.3 16.82 20.55 16.4 20.07 16.32 19.81 16.74"/>
    </g>
  </g>
</svg>