<?xml version="1.0" encoding="UTF-8"?>
<svg id="Layer_1" data-name="Layer 1" xmlns="http://www.w3.org/2000/svg" xmlns:xlink="http://www.w3.org/1999/xlink" viewBox="0 0 118.25 27.32">
  <defs>
    <style>
      .cls-1 {
        fill: #fff;
      }

      .cls-2 {
        clip-path: url(#clippath);
      }

      .cls-3 {
        fill: #edd016;
      }

      .cls-4 {
        fill: none;
      }

      .cls-5 {
        fill: #2fa649;
      }

      .cls-6 {
        fill: #e9f6ff;
      }
    </style>
    <clipPath id="clippath">
      <path class="cls-4" d="M20.05,16.32l1.8-2.94c-.33-.3-.43-.8-.22-1.22,.21-.42,.66-.63,1.1-.56-.25-3.86-2.49-7.49-6.2-9.35C10.96-.53,4.2,1.72,1.42,7.28,.45,9.22,.09,11.29,.27,13.3l.04-.23,19.74,3.25Z"/>
    </clipPath>
  </defs>
  <path class="cls-1" d="M.83,15.39l-.18,.48,1.13,.42c-.04-.19-.08-.39-.11-.59l-.84-.31Z"/>
  <path class="cls-1" d="M14.27,27.32h0c-.09-.01-.17-.02-.26-.02l.26,.02Z"/>
  <path class="cls-1" d="M18.64,26.06l.14-.23c-.09,.05-.18,.1-.27,.15l.13,.08Z"/>
  <path class="cls-1" d="M1.51,14.99h.07c0-.08-.02-.16-.03-.25l-.04,.25Z"/>
  <g>
    <g>
      <path class="cls-5" d="M24.69,19.3c.15,.38,.16,.38,.47,.25,.93-.39,1.86-.78,2.79-1.18,.2-.08,.38-.12,.48,.12,.09,.22-.05,.33-.24,.41-.91,.38-1.81,.76-2.71,1.14-.09,.04-.18,.09-.27,.13,.15,.38,.15,.38,.49,.24,.73-.3,1.46-.6,2.2-.9,.07-.03,.15-.08,.21-.07,.11,.03,.25,.08,.3,.16,.04,.07-.01,.22-.07,.3-.05,.07-.15,.11-.24,.14-.84,.35-1.69,.71-2.53,1.06-.38,.16-.48,.12-.69-.24-.4-.69-.82-1.38-1.2-2.08-.13-.23-.27-.31-.52-.24-.18,.05-.37,.11-.56,.1-.11,0-.22-.12-.33-.19,.08-.1,.14-.27,.23-.29,.38-.1,.76-.17,1.15-.22,.09-.01,.23,.07,.3,.15,.12,.15,.21,.32,.29,.49,.1,.21,.22,.26,.45,.16,1.01-.44,2.03-.86,3.05-1.3,.38-.16,.57-.17,.62,.03,.07,.31-.22,.33-.41,.41-1.03,.44-2.06,.87-3.09,1.31-.05,.02-.1,.05-.16,.09Z"/>
      <path class="cls-5" d="M26.64,21.79c0,.27-.21,.47-.47,.46-.28,0-.47-.22-.46-.5,.01-.27,.21-.45,.49-.44,.27,0,.45,.2,.45,.48Z"/>
      <path class="cls-5" d="M28.33,21.2c-.17-.01-.3-.13-.3-.34,0-.22,.14-.34,.35-.34,.21,0,.34,.14,.34,.35,0,.21-.12,.33-.39,.33Z"/>
    </g>
    <g>
      <g>
        <path class="cls-5" d="M17.38,21.59c.07,.07,.13,.14,.17,.23,1.34-.86,2.52-2,3.42-3.41l-1.85,.34-1.74,2.85Z"/>
        <path class="cls-5" d="M3.82,15.42l6.67,3.82c.3-.33,.8-.44,1.22-.22,.23,.11,.39,.3,.49,.52l6.64-1.21,.97-1.59L.31,13.53c.02,.21,.05,.41,.09,.62l3.41,1.25h.02Z"/>
        <path class="cls-5" d="M10.94,20.92c-.05-.02-.11-.04-.16-.06-.46-.23-.67-.75-.52-1.23l-6.65-3.81L.49,14.68c.69,3.23,2.79,6.12,5.97,7.71,1.45,.72,2.98,1.11,4.5,1.18l-.22-.02,.2-2.63Z"/>
        <path class="cls-5" d="M22.26,13.61l-1.71,2.79,1.31,.22-.03,.16c.44-1.02,.72-2.07,.84-3.13-.14,.02-.28,0-.42-.04Z"/>
        <path class="cls-5" d="M19.44,18.22l1.85-.34c.1-.17,.19-.34,.28-.52,.05-.1,.1-.21,.15-.31l-1.42-.23-.85,1.4Z"/>
        <path class="cls-5" d="M15.74,21.87c.23-.47,.77-.68,1.25-.52l1.53-2.5-6.24,1.13c0,.14-.04,.28-.11,.42-.16,.31-.45,.51-.77,.56l-.2,2.62c1.56,.04,3.1-.24,4.53-.82-.13-.27-.13-.6,.02-.89Z"/>
        <path class="cls-5" d="M19.63,19.24c.19-.23,.38-.46,.55-.69l3.34-.61c.17-.02,.32,.07,.37,.2,.07,.19-.09,.41-.2,.42-.04,0-.05-.02-.14-.03,0,0-.07-.01-.17,0-.91,.04-2.92,1.75-2.92,1.75s-1.64,1.39-2.9,1.56c-.03,0-.11,.02-.14-.03-.06-.09,.15-.33,.39-.57,.6-.59,1.22-1.25,1.83-1.98Z"/>
      </g>
      <g class="cls-2">
        <g>
          <path class="cls-6" d="M.82,6.79c.1,1.06,.68,1.77,1.5,2.35,1.55,1.09,3.34,1.55,5.2,1.69,4.09,.31,8-.42,11.71-2.1,.69-.31,1.29-.85,1.87-1.34,.26-.22,.38-.59,.58-.94,.41,.88,.84,1.75,.71,2.75-.14,1.02-.86,1.64-1.73,2.13-1.66,.93-3.5,1.26-5.36,1.4-3.41,.25-6.8,.13-10.12-.75-1.54-.41-3-.96-4.21-2.03-.61-.54-.9-1.14-.57-1.94,.16-.4,.29-.81,.43-1.22Z"/>
          <path class="cls-3" d="M22.72,10.95c-.04,1.12,.02,2.36-.79,3.42-.72,.95-1.73,1.55-2.86,1.87-1.45,.4-2.93,.77-4.43,.93-2.59,.28-5.2,.22-7.77-.33-1.95-.42-3.8-1.08-5.41-2.28C.25,13.66-.06,13,.01,11.51c.39,.48,.75,1.03,1.21,1.47,1.4,1.35,3.18,2.04,5.08,2.3,5.1,.69,9.88-.35,14.36-2.74,.77-.41,1.39-1.06,2.06-1.59Z"/>
          <path class="cls-3" d="M3.61,2.91c-.49,1.41,.33,2.47,1.6,2.97,1.29,.52,2.66,.57,4.03,.56,2.56-.03,5.05-.38,7.4-1.41,.6-.26,1.17-.63,1.69-1.02,.32-.24,.52-.64,.84-1.04,.42,.49,.94,1.01,1.34,1.6,.46,.68,.18,1.59-.54,2.2-1.07,.91-2.37,1.31-3.73,1.52-3.74,.58-7.42,.31-11.01-.85-.88-.29-1.73-.76-2.49-1.29-.9-.64-.91-1.26-.2-2.09,.34-.4,.71-.76,1.07-1.14Z"/>
          <path class="cls-6" d="M11.53,4.38c-2.15-.03-3.85-.1-5.46-.71-.32-.12-.64-.28-.92-.47-.64-.44-.67-.99,0-1.38,.79-.46,1.62-.91,2.49-1.2,3.15-1.03,6.23-.77,9.17,.75,.16,.08,.32,.17,.47,.27,.7,.43,.71,.85,.03,1.34-.82,.6-1.79,.86-2.77,1.03-1.14,.2-2.31,.28-3.03,.37Z"/>
          <path class="cls-6" d="M1.37,16.3c3,2.47,6.47,2.9,10.09,2.75,2.38-.1,4.7-.53,6.91-1.42,1.27-.51,2.44-1.18,3.43-2.27-.79,2.04-2.25,3.26-4.2,3.99-2.82,1.06-5.72,1.13-8.67,.74-1.88-.25-3.69-.73-5.32-1.7-.86-.51-1.63-1.21-2.23-2.09Z"/>
          <path class="cls-6" d="M18.03,19.89c-3.23,2.54-8.79,3.11-13.07,.25,4.46,1.49,8.78,1.49,13.07-.25Z"/>
        </g>
      </g>
      <path class="cls-1" d="M22.63,18.1l-.08-.45-1.26,.23c-.1,.18-.21,.35-.32,.52l1.66-.3Z"/>
      <path class="cls-1" d="M10.26,19.64c.02-.05,.04-.11,.06-.16,.04-.09,.1-.17,.16-.24l-6.67-3.82h-.02S.39,14.15,.39,14.15c.03,.18,.06,.35,.1,.53l3.11,1.15,6.65,3.81Z"/>
      <path class="cls-1" d="M12.19,19.53c.06,.14,.09,.3,.08,.45l6.24-1.13,.32-.52-6.64,1.21Z"/>
      <path class="cls-1" d="M19.12,18.74l1.85-.34c.11-.17,.21-.35,.32-.52l-1.85,.34-.32,.52Z"/>
      <path class="cls-1" d="M11.4,20.96c.32-.05,.62-.25,.77-.56,.07-.13,.1-.28,.11-.42l-.82,.15-.06,.83Z"/>
      <path class="cls-1" d="M12.19,19.53c-.09-.22-.26-.4-.49-.52-.42-.21-.92-.11-1.22,.22l.8,.46,.91-.17Z"/>
      <path class="cls-1" d="M10.26,19.64c-.15,.47,.07,1,.52,1.23,.05,.03,.1,.05,.16,.06l.07-.86-.75-.43Z"/>
      <path class="cls-1" d="M12.19,19.53l-.91,.17-.8-.46c-.06,.07-.12,.15-.16,.24-.03,.05-.05,.11-.06,.16l.75,.43v-.14s.47,.04,.47,.04v.18s.8-.15,.8-.15c0-.16-.02-.31-.08-.45Z"/>
      <path class="cls-1" d="M23.49,13.08c-.16,.32-.47,.52-.8,.56-.14,.02-.28,0-.42-.04-.05-.02-.11-.04-.16-.06-.09-.05-.17-.1-.24-.17-.33-.3-.43-.8-.22-1.22,.21-.42,.66-.63,1.1-.56,.1,.02,.2,.05,.29,.09,.51,.26,.72,.88,.46,1.39Z"/>
      <path class="cls-1" d="M4.86,16.29c-.16,.32-.47,.52-.8,.56-.14,.02-.28,0-.42-.04-.05-.02-.11-.04-.16-.06-.09-.05-.17-.1-.24-.17-.33-.3-.43-.8-.22-1.22,.21-.42,.66-.63,1.1-.56,.1,.02,.2,.05,.29,.09,.51,.26,.72,.88,.46,1.39Z"/>
      <path class="cls-1" d="M17.06,22.11c.17-.09,.33-.19,.49-.3-.05-.08-.11-.16-.17-.23l-.32,.52Z"/>
      <path class="cls-1" d="M16.46,22.21l.52-.86c-.48-.16-1.02,.05-1.25,.52-.15,.29-.14,.62-.02,.89,.32-.13,.63-.27,.94-.43l-.19-.12Z"/>
      <path class="cls-1" d="M10.94,20.92l-.2,2.63,.22,.02c.08,0,.16,0,.23,0l.2-2.62c-.15,.02-.31,.01-.46-.04Z"/>
      <path class="cls-1" d="M11.2,20.18l-.07-.04-.13-.07-.07,.86c.15,.05,.31,.06,.46,.04l.06-.83-.26,.05Z"/>
      <polygon class="cls-1" points="11.2 20.18 11.46 20.13 11.47 19.96 11.02 19.92 11 20.07 11.13 20.14 11.2 20.18"/>
      <path class="cls-1" d="M21.86,13.38l-1.8,2.94,.49,.08,1.71-2.79c-.05-.02-.11-.04-.16-.06-.09-.05-.17-.1-.24-.17Z"/>
      <polygon class="cls-1" points="18.84 18.33 19.44 18.22 20.3 16.82 19.81 16.74 18.84 18.33"/>
      <path class="cls-1" d="M16.99,21.35s.09,.03,.13,.05c.1,.05,.18,.11,.26,.18l1.74-2.85-.6,.11-1.53,2.5Z"/>
      <polygon class="cls-1" points="18.52 18.85 19.12 18.74 19.44 18.22 18.84 18.33 18.52 18.85"/>
      <path class="cls-1" d="M17.12,21.41s-.09-.04-.13-.05l-.52,.86,.19,.12c.14-.07,.27-.14,.4-.22l.32-.52c-.07-.07-.16-.13-.26-.18Z"/>
      <path class="cls-1" d="M21.79,17.07l.05-.29c-.04,.09-.08,.18-.12,.28h.08Z"/>
      <path class="cls-1" d="M20.07,16.32L.32,13.07l-.04,.23c0,.08,.01,.16,.02,.24l19.5,3.21,.26-.42Z"/>
      <path class="cls-1" d="M20.55,16.4l-.26,.42,1.42,.23c.04-.09,.08-.18,.12-.28l.03-.16-1.31-.22Z"/>
      <polygon class="cls-1" points="19.81 16.74 20.3 16.82 20.55 16.4 20.07 16.32 19.81 16.74"/>
    </g>
  </g>
  <g>
    <path class="cls-6" d="M33.91,5.05c-.12-.37-.23-.61-.37-.71-.11-.07-.31-.09-.4-.09-.1,0-.16,0-.16-.09,0-.07,.08-.09,.22-.09,.52,0,1.07,.03,1.16,.03s.53-.03,1.11-.03c.14,0,.21,.03,.21,.09,0,.08-.08,.09-.18,.09-.08,0-.18,0-.25,.04-.09,.04-.11,.11-.11,.22,0,.13,.1,.47,.22,.92,.17,.66,1.1,3.69,1.28,4.25h.03l1.94-5.21c.1-.28,.17-.36,.25-.36,.11,0,.16,.15,.29,.47l2.08,5.03h.03c.18-.67,.98-3.31,1.33-4.48,.07-.23,.1-.44,.1-.58,0-.16-.09-.3-.48-.3-.1,0-.17-.03-.17-.09,0-.07,.08-.09,.23-.09,.53,0,.95,.03,1.04,.03,.07,0,.5-.03,.83-.03,.11,0,.18,.02,.18,.08,0,.07-.05,.1-.14,.1-.1,0-.24,0-.35,.05-.24,.09-.35,.49-.56,1.06-.46,1.26-1.51,4.44-2,5.94-.11,.35-.16,.47-.29,.47-.1,0-.16-.12-.31-.49l-2.08-5.01h-.02c-.19,.51-1.52,4.05-1.95,4.97-.19,.41-.24,.53-.36,.53-.1,0-.14-.11-.23-.37l-2.12-6.35Z"/>
    <path class="cls-6" d="M44.5,8.41c0-1.45,1.02-3.33,3.69-3.33,2.22,0,3.6,1.23,3.6,3.18s-1.42,3.48-3.69,3.48c-2.56,0-3.6-1.82-3.6-3.33Zm5.98,.16c0-1.88-1.13-3.04-2.55-3.04-.98,0-2.13,.52-2.13,2.62,0,1.75,1,3.13,2.66,3.13,.62,0,2.02-.29,2.02-2.71Z"/>
    <path class="cls-6" d="M53.44,7.66c0-1.29,0-1.53,0-1.8-.02-.29-.1-.38-.38-.46-.07-.02-.22-.03-.35-.03-.09,0-.15-.03-.15-.09s.07-.08,.2-.08c.46,0,1.02,.02,1.2,.02,.3,0,1.1-.02,1.37-.02,.56,0,1.2,.05,1.67,.36,.25,.17,.62,.6,.62,1.17,0,.63-.36,1.19-1.22,1.88,.78,.96,1.4,1.73,1.93,2.26,.49,.49,.8,.53,.94,.56,.09,.02,.14,.02,.21,.02s.11,.05,.11,.09c0,.07-.06,.09-.17,.09h-.84c-.49,0-.73-.05-.96-.17-.38-.19-.71-.59-1.2-1.25-.35-.46-.72-1.03-.83-1.16-.05-.05-.1-.06-.16-.06l-.79-.02s-.07,.02-.07,.07v.12c0,.79,0,1.45,.05,1.81,.03,.25,.07,.41,.34,.45,.13,.02,.32,.03,.43,.03,.07,0,.11,.05,.11,.09,0,.06-.07,.09-.18,.09-.51,0-1.24-.03-1.37-.03-.17,0-.73,.03-1.08,.03-.11,0-.17-.03-.17-.09,0-.04,.03-.09,.14-.09,.13,0,.23,0,.31-.03,.18-.04,.23-.2,.26-.45,.04-.36,.04-1.03,.04-1.81v-1.5Zm1.12,.66c0,.09,.02,.12,.08,.15,.19,.06,.45,.08,.67,.08,.35,0,.47-.03,.62-.14,.27-.19,.57-.56,.57-1.26,0-1.2-.82-1.51-1.34-1.51-.22,0-.43,0-.52,.03-.06,.02-.08,.05-.08,.12v2.53Z"/>
    <path class="cls-6" d="M61.48,9.16c0,1.09,0,1.63,.19,1.79,.15,.13,.49,.18,1.17,.18,.47,0,.81-.01,1.03-.24,.11-.11,.2-.35,.22-.51,0-.08,.03-.13,.1-.13,.06,0,.08,.09,.08,.19s-.06,.73-.13,.98c-.06,.19-.1,.23-.56,.23-.63,0-1.14,0-1.58-.03-.44,0-.81-.02-1.17-.02-.1,0-.29,0-.5,0-.21,0-.43,.02-.61,.02-.11,0-.17-.03-.17-.09,0-.04,.03-.09,.14-.09,.13,0,.23,0,.31-.03,.18-.04,.23-.2,.26-.45,.04-.36,.04-1.03,.04-1.81v-1.5c0-1.29,0-1.53,0-1.8-.02-.29-.1-.38-.38-.46-.07-.02-.18-.03-.29-.03-.1,0-.15-.03-.15-.09s.06-.08,.19-.08c.41,0,.97,.02,1.21,.02,.21,0,.93-.02,1.27-.02,.13,0,.19,.02,.19,.08s-.05,.09-.16,.09c-.1,0-.24,0-.34,.03-.24,.04-.31,.16-.33,.46-.02,.27-.02,.51-.02,1.8v1.5Z"/>
    <path class="cls-6" d="M65.83,7.66c0-1.29,0-1.53,0-1.8-.02-.29-.1-.38-.38-.46-.07-.02-.22-.03-.35-.03-.09,0-.15-.03-.15-.09s.07-.08,.2-.08c.46,0,1.02,.02,1.27,.02,.27,0,.9-.02,1.43-.02,1.1,0,2.58,0,3.54,.97,.44,.44,.83,1.15,.83,2.16,0,1.07-.46,1.88-.96,2.37-.4,.4-1.33,1-2.95,1-.32,0-.7-.03-1.05-.05-.35-.03-.67-.05-.89-.05-.1,0-.29,0-.5,0-.21,0-.43,.02-.61,.02-.11,0-.17-.03-.17-.09,0-.04,.03-.09,.14-.09,.13,0,.23,0,.31-.03,.18-.04,.23-.2,.26-.45,.04-.36,.04-1.03,.04-1.81v-1.5Zm1.18,.94c0,.9,0,1.55,.02,1.72,.01,.21,.03,.51,.1,.6,.11,.16,.46,.34,1.15,.34,.8,0,1.39-.14,1.92-.58,.57-.47,.75-1.23,.75-2.11,0-1.08-.43-1.78-.82-2.12-.81-.72-1.77-.81-2.46-.81-.18,0-.47,.02-.54,.06-.08,.03-.11,.07-.11,.17,0,.29,0,.99,0,1.66v1.07Z"/>
    <path class="cls-6" d="M77.72,4.11c.03-.17,.09-.26,.17-.26s.14,.05,.27,.31l2.73,5.64,2.72-5.71c.08-.16,.13-.24,.22-.24s.15,.1,.18,.31l.91,6.18c.09,.63,.19,.92,.49,1.01,.29,.09,.49,.1,.62,.1,.09,0,.16,0,.16,.07,0,.08-.12,.11-.26,.11-.25,0-1.63-.03-2.03-.06-.23-.02-.29-.05-.29-.11,0-.05,.04-.08,.11-.11,.06-.02,.09-.15,.05-.43l-.6-4.4h-.04l-2.18,4.54c-.23,.47-.28,.56-.37,.56s-.19-.2-.35-.5c-.24-.46-1.03-1.99-1.15-2.27-.09-.21-.69-1.47-1.04-2.22h-.04l-.52,3.98c-.02,.18-.03,.31-.03,.47,0,.19,.13,.28,.3,.32,.18,.04,.32,.05,.42,.05,.08,0,.15,.02,.15,.07,0,.09-.09,.11-.24,.11-.42,0-.87-.03-1.05-.03-.19,0-.67,.03-.99,.03-.1,0-.18-.02-.18-.11,0-.05,.06-.07,.16-.07,.08,0,.15,0,.3-.03,.28-.06,.36-.45,.41-.79l.99-6.52Z"/>
    <path class="cls-6" d="M88.06,9.49s-.06,0-.08,.06l-.47,1.14c-.09,.21-.13,.42-.13,.52,0,.15,.08,.24,.35,.24h.13c.11,0,.13,.04,.13,.09,0,.07-.05,.09-.14,.09-.29,0-.7-.03-.98-.03-.09,0-.56,.03-1.02,.03-.11,0-.16-.02-.16-.09,0-.05,.03-.09,.1-.09,.08,0,.18,0,.26,0,.4-.06,.55-.32,.73-.75l2.3-5.35c.1-.24,.17-.34,.26-.34,.13,0,.17,.08,.26,.27,.21,.47,1.68,3.95,2.24,5.24,.34,.77,.59,.88,.75,.91,.13,.02,.23,.03,.33,.03,.08,0,.12,.03,.12,.09,0,.07-.05,.09-.38,.09-.31,0-.95,0-1.69-.02-.16,0-.26,0-.26-.07,0-.05,.02-.08,.11-.09,.06,0,.12-.09,.08-.19l-.68-1.71c-.02-.05-.05-.06-.09-.06h-2.07Zm1.88-.47s.05-.02,.04-.05l-.83-2.16s-.02-.08-.04-.08c-.03,0-.04,.05-.05,.08l-.85,2.15s0,.06,.03,.06h1.7Z"/>
    <path class="cls-6" d="M94.01,7.66c0-1.29,0-1.53,0-1.8-.02-.29-.1-.38-.38-.46-.07-.02-.22-.03-.35-.03-.09,0-.15-.03-.15-.09s.07-.08,.2-.08c.46,0,1.02,.02,1.2,.02,.3,0,1.1-.02,1.37-.02,.56,0,1.2,.05,1.67,.36,.25,.17,.62,.6,.62,1.17,0,.63-.36,1.19-1.22,1.88,.78,.96,1.4,1.73,1.93,2.26,.49,.49,.8,.53,.94,.56,.09,.02,.14,.02,.21,.02s.11,.05,.11,.09c0,.07-.06,.09-.17,.09h-.84c-.49,0-.73-.05-.96-.17-.38-.19-.71-.59-1.2-1.25-.35-.46-.72-1.03-.83-1.16-.05-.05-.1-.06-.16-.06l-.79-.02s-.07,.02-.07,.07v.12c0,.79,0,1.45,.05,1.81,.03,.25,.07,.41,.34,.45,.13,.02,.32,.03,.43,.03,.07,0,.11,.05,.11,.09,0,.06-.07,.09-.18,.09-.51,0-1.24-.03-1.37-.03-.17,0-.73,.03-1.08,.03-.11,0-.17-.03-.17-.09,0-.04,.03-.09,.14-.09,.13,0,.23,0,.31-.03,.18-.04,.23-.2,.26-.45,.04-.36,.04-1.03,.04-1.81v-1.5Zm1.12,.66c0,.09,.02,.12,.08,.15,.19,.06,.45,.08,.67,.08,.35,0,.47-.03,.62-.14,.27-.19,.57-.56,.57-1.26,0-1.2-.82-1.51-1.34-1.51-.22,0-.43,0-.52,.03-.06,.02-.08,.05-.08,.12v2.53Z"/>
    <path class="cls-6" d="M102.02,8.04h.04c.3-.32,1.58-1.58,1.84-1.87,.25-.28,.44-.48,.44-.63,0-.09-.04-.15-.12-.17-.08-.02-.12-.04-.12-.09,0-.06,.05-.08,.14-.08,.19,0,.67,.02,.91,.02,.27,0,.76-.02,1.03-.02,.09,0,.15,.02,.15,.08s-.05,.09-.13,.09c-.13,0-.35,.04-.51,.1-.28,.1-.56,.28-.93,.63-.28,.26-1.59,1.5-1.86,1.81,.31,.4,2.04,2.2,2.38,2.52,.39,.35,.73,.72,1.2,.91,.26,.11,.44,.11,.54,.11,.07,0,.12,.04,.12,.09,0,.06-.05,.09-.21,.09h-.77c-.26,0-.42,0-.61-.02-.47-.04-.76-.22-1.14-.55s-2.07-2.29-2.26-2.55l-.09-.12h-.04v.77c0,.78,0,1.45,.02,1.82,.02,.24,.1,.4,.32,.44,.12,.02,.32,.03,.43,.03,.07,0,.12,.05,.12,.09,0,.06-.07,.09-.17,.09-.49,0-1.12-.03-1.34-.03-.2,0-.76,.03-1.11,.03-.11,0-.17-.03-.17-.09,0-.04,.03-.09,.14-.09,.13,0,.23,0,.31-.03,.18-.04,.23-.2,.26-.45,.04-.36,.04-1.03,.04-1.81v-1.5c0-1.29,0-1.53,0-1.8-.02-.29-.1-.38-.38-.46-.07-.02-.22-.03-.35-.03-.09,0-.15-.03-.15-.09s.07-.08,.2-.08c.46,0,1.02,.02,1.23,.02s.84-.02,1.13-.02c.13,0,.19,.02,.19,.08s-.05,.09-.12,.09c-.09,0-.14,0-.25,.03-.24,.04-.31,.16-.33,.46,0,.27,0,.51,0,1.8v.38Z"/>
    <path class="cls-6" d="M107.73,7.66c0-1.29,0-1.53,0-1.8-.02-.29-.1-.38-.38-.46-.07-.02-.22-.03-.35-.03-.09,0-.15-.03-.15-.09s.07-.08,.2-.08c.46,0,1.02,.02,1.27,.02,.28,0,2.23,0,2.4,0,.16,0,.3-.04,.37-.05,.05,0,.1-.04,.14-.04,.05,0,.06,.04,.06,.08,0,.06-.05,.16-.07,.55,0,.09-.03,.46-.05,.56,0,.04-.03,.14-.1,.14-.06,0-.07-.04-.07-.11,0-.06,0-.21-.06-.31-.07-.15-.14-.27-.58-.31-.15-.02-1.2-.04-1.38-.04-.04,0-.06,.03-.06,.08v2.1s0,.09,.06,.09c.2,0,1.34,0,1.54-.02,.21-.02,.34-.04,.42-.13,.07-.06,.1-.11,.14-.11s.07,.04,.07,.09-.02,.19-.07,.62c-.02,.17-.04,.51-.04,.57,0,.07,0,.19-.09,.19-.06,0-.08-.03-.08-.07,0-.09,0-.2-.03-.31-.05-.17-.16-.3-.49-.33-.16-.02-1.16-.04-1.38-.04-.04,0-.05,.04-.05,.09v.68c0,.29,0,1.01,0,1.26,.02,.58,.29,.71,1.19,.71,.23,0,.6,0,.83-.11,.22-.1,.32-.28,.38-.63,.02-.09,.04-.13,.1-.13,.07,0,.08,.11,.08,.2,0,.19-.07,.77-.12,.94-.06,.22-.14,.22-.47,.22-.66,0-1.19,0-1.62-.03-.43,0-.76-.02-1.02-.02-.1,0-.29,0-.5,0-.21,0-.43,.02-.61,.02-.11,0-.17-.03-.17-.09,0-.04,.03-.09,.14-.09,.13,0,.23,0,.31-.03,.18-.04,.23-.2,.26-.45,.04-.36,.04-1.03,.04-1.81v-1.5Z"/>
    <path class="cls-6" d="M114.66,5.72l-1.31,.03c-.51,0-.72,.07-.85,.26-.09,.12-.13,.23-.15,.29-.02,.07-.04,.11-.1,.11s-.08-.05-.08-.14c0-.14,.17-.96,.19-1.03,.02-.11,.05-.16,.1-.16,.07,0,.16,.07,.38,.1,.26,.03,.59,.04,.88,.04h3.57c.28,0,.47-.02,.6-.04,.14-.02,.21-.04,.24-.04,.06,0,.07,.05,.07,.18,0,.18-.02,.81-.02,1.03,0,.09-.03,.14-.08,.14-.07,0-.09-.04-.1-.17v-.09c-.03-.22-.26-.48-1.05-.49l-1.11-.02v3.44c0,.78,0,1.45,.05,1.82,.03,.24,.08,.4,.34,.44,.12,.02,.32,.03,.45,.03,.1,0,.14,.05,.14,.09,0,.06-.07,.09-.17,.09-.58,0-1.17-.03-1.42-.03-.2,0-.8,.03-1.15,.03-.11,0-.17-.03-.17-.09,0-.04,.03-.09,.14-.09,.13,0,.24,0,.31-.03,.18-.04,.23-.2,.26-.45,.04-.36,.04-1.03,.04-1.81v-3.44Z"/>
  </g>
  <g>
    <path class="cls-5" d="M61.86,19.58c-.69-.61-.86-1.42-.86-2.09,0-.47,.16-1.3,.79-1.93,.42-.42,1.07-.76,2.16-.76,.28,0,.68,.02,1.02,.08,.27,.05,.49,.09,.72,.11,.08,0,.09,.04,.09,.08,0,.06-.02,.14-.04,.4-.01,.23-.01,.62-.02,.73,0,.11-.02,.15-.06,.15-.05,0-.06-.05-.06-.15,0-.28-.11-.57-.3-.72-.25-.21-.79-.4-1.41-.4-.94,0-1.38,.28-1.63,.52-.52,.49-.64,1.12-.64,1.84,0,1.35,1.04,2.59,2.55,2.59,.53,0,.95-.06,1.23-.35,.15-.16,.24-.47,.26-.59,.01-.08,.03-.11,.07-.11,.04,0,.05,.05,.05,.11,0,.05-.08,.66-.16,.9-.04,.13-.06,.15-.18,.2-.28,.11-.82,.16-1.27,.16-1.06,0-1.77-.26-2.33-.76Z"/>
    <path class="cls-5" d="M69.02,15.61c1.4,0,2.46,.85,2.46,2.25s-1,2.45-2.49,2.45c-1.7,0-2.43-1.28-2.43-2.36,0-.97,.75-2.35,2.47-2.35Zm.14,4.46c.56,0,1.68-.3,1.68-2.03,0-1.44-.88-2.2-1.86-2.2-1.04,0-1.79,.65-1.79,1.96,0,1.4,.84,2.28,1.96,2.28Z"/>
    <path class="cls-5" d="M73.04,19.42c.01,.49,.07,.64,.24,.69,.11,.03,.25,.04,.31,.04,.03,0,.05,.02,.05,.05,0,.04-.04,.05-.11,.05-.35,0-.6-.02-.66-.02s-.32,.02-.6,.02c-.06,0-.1,0-.1-.05,0-.03,.02-.05,.05-.05,.05,0,.16,0,.25-.04,.16-.04,.18-.2,.18-.75v-3.44c0-.24,.04-.3,.08-.3,.07,0,.18,.12,.24,.18,.1,.1,1,1.06,1.96,2.05,.61,.64,1.28,1.35,1.47,1.55l-.06-3.01c0-.39-.04-.52-.23-.56-.11-.02-.25-.03-.3-.03-.04,0-.05-.04-.05-.06,0-.04,.05-.04,.12-.04,.28,0,.58,.01,.65,.01s.28-.01,.53-.01c.06,0,.11,0,.11,.04,0,.02-.03,.06-.07,.06-.03,0-.08,0-.15,.01-.2,.04-.22,.16-.22,.52v3.52c-.01,.4-.02,.43-.06,.43-.06,0-.13-.05-.47-.37-.06-.06-.96-.94-1.62-1.63-.72-.76-1.42-1.49-1.61-1.7l.07,2.83Z"/>
    <path class="cls-5" d="M78.78,19.42c.01,.49,.07,.64,.24,.69,.11,.03,.25,.04,.31,.04,.03,0,.05,.02,.05,.05,0,.04-.04,.05-.11,.05-.35,0-.6-.02-.66-.02s-.32,.02-.6,.02c-.06,0-.1,0-.1-.05,0-.03,.02-.05,.05-.05,.05,0,.16,0,.25-.04,.16-.04,.18-.2,.18-.75v-3.44c0-.24,.04-.3,.08-.3,.07,0,.18,.12,.24,.18,.1,.1,1,1.06,1.96,2.05,.61,.64,1.28,1.35,1.47,1.55l-.06-3.01c0-.39-.04-.52-.23-.56-.11-.02-.25-.03-.3-.03-.04,0-.05-.04-.05-.06,0-.04,.05-.04,.12-.04,.28,0,.58,.01,.65,.01s.28-.01,.53-.01c.06,0,.11,0,.11,.04,0,.02-.03,.06-.07,.06-.03,0-.08,0-.15,.01-.2,.04-.22,.16-.22,.52v3.52c-.01,.4-.02,.43-.06,.43-.06,0-.13-.05-.47-.37-.06-.06-.96-.94-1.62-1.63-.72-.76-1.42-1.49-1.61-1.7l.07,2.83Z"/>
    <path class="cls-5" d="M84.27,17.44c0-.93,0-1.1-.01-1.29-.01-.2-.05-.3-.25-.33-.05,0-.16-.01-.21-.01-.02,0-.05-.03-.05-.05,0-.04,.03-.05,.1-.05,.28,0,.69,.01,.72,.01,.04,0,1.34,0,1.48,0,.12,0,.23-.03,.28-.04,.03,0,.06-.03,.08-.03,.02,0,.03,.03,.03,.06,0,.04-.04,.11-.05,.28,0,.06-.02,.32-.04,.4,0,.03-.03,.06-.06,.06-.04,0-.05-.03-.05-.08,0-.04,0-.14-.04-.21-.04-.1-.11-.14-.45-.18-.11-.01-.83-.02-.9-.02-.03,0-.04,.02-.04,.06v1.63s0,.06,.04,.06c.08,0,.9,0,1.04-.01,.15-.01,.24-.02,.3-.08,.04-.04,.07-.08,.09-.08s.04,.01,.04,.05-.04,.13-.05,.33c-.01,.12-.03,.35-.03,.39,0,.05-.01,.11-.06,.11-.03,0-.04-.02-.04-.06,0-.06,0-.12-.03-.2-.02-.08-.08-.16-.32-.18-.17-.02-.83-.03-.94-.03-.04,0-.04,.02-.04,.04v.5c0,.2,0,.9,0,1.02,.01,.4,.13,.48,.74,.48,.16,0,.46,0,.62-.06,.16-.07,.25-.18,.28-.42,.01-.07,.03-.09,.06-.09s.04,.05,.04,.09-.05,.45-.08,.58c-.04,.16-.11,.16-.35,.16-.47,0-.83-.01-1.08-.02-.26-.01-.42-.01-.52-.01-.01,0-.13,0-.27,0-.12,0-.26,.01-.36,.01-.06,0-.1-.01-.1-.05,0-.02,.01-.05,.05-.05,.06,0,.13-.02,.19-.03,.12-.02,.13-.14,.16-.32,.04-.25,.04-.72,.04-1.3v-1.06Z"/>
    <path class="cls-5" d="M88.21,19.68c-.61-.52-.76-1.21-.76-1.78,0-.4,.15-1.1,.7-1.64,.37-.36,.94-.64,1.89-.64,.25,0,.6,.02,.9,.07,.23,.04,.43,.08,.64,.09,.06,0,.08,.03,.08,.06,0,.05-.01,.12-.03,.34,0,.2,0,.53-.01,.61,0,.09-.04,.13-.07,.13-.04,0-.05-.04-.05-.13,0-.23-.1-.47-.26-.6-.22-.18-.67-.33-1.22-.33-.8,0-1.18,.21-1.4,.42-.46,.42-.56,.96-.56,1.57,0,1.15,.91,2.18,2.24,2.18,.47,0,.78-.04,1.02-.28,.13-.13,.22-.39,.24-.5,.01-.06,.02-.08,.06-.08,.03,0,.06,.04,.06,.08s-.08,.57-.15,.77c-.04,.11-.05,.13-.16,.18-.25,.1-.72,.13-1.12,.13-.93,0-1.56-.22-2.05-.64Z"/>
    <path class="cls-5" d="M94.48,18.5c0,.58,0,1.05,.03,1.3,.02,.18,.05,.29,.24,.32,.08,.01,.23,.03,.28,.03,.04,0,.05,.03,.05,.05,0,.03-.03,.05-.1,.05-.34,0-.73-.02-.77-.02-.03,0-.46,.02-.64,.02-.07,0-.1-.01-.1-.05,0-.02,.01-.04,.05-.04,.06,0,.13-.01,.18-.03,.13-.03,.16-.15,.18-.33,.03-.25,.03-.72,.03-1.3v-2.52h-.9c-.39,.02-.54,.06-.63,.2-.07,.11-.08,.15-.1,.19-.01,.05-.04,.06-.06,.06-.01,0-.04-.01-.04-.05,0-.06,.13-.6,.13-.65,.01-.04,.04-.11,.06-.11,.04,0,.11,.05,.28,.07,.18,.02,.42,.03,.49,.03h2.35c.2,0,.35-.01,.45-.03,.09-.01,.15-.03,.18-.03s.03,.04,.03,.07c0,.18-.02,.61-.02,.69,0,.05-.03,.08-.06,.08s-.04-.02-.05-.11v-.06c-.03-.18-.16-.32-.76-.33h-.78s0,2.51,0,2.51Z"/>
  </g>
  <g>
    <path class="cls-5" d="M98.22,17.46c0,.07-.03,.15-.06,.22h19.19v-.22h-19.12Z"/>
    <circle class="cls-5" cx="117.6" cy="17.57" r=".65"/>
  </g>
  <g>
    <path class="cls-5" d="M59.02,17.5s0-.02,0-.04h-25.19v.22h25.25c-.03-.06-.05-.12-.05-.19Z"/>
    <circle class="cls-5" cx="33.83" cy="17.57" r=".65"/>
  </g>
</svg>